<svg width="150" height="150" viewBox="0 0 150 150" fill="none" xmlns="http://www.w3.org/2000/svg">
<g opacity="0.05">
<path d="M20.5211 9.66912C20.5211 15.0228 16.2644 19.3382 11.0547 19.3382C5.84505 19.3382 1.58838 14.9904 1.58838 9.66912C1.58838 4.31543 5.84505 0 11.0547 0C16.2644 0 20.5211 4.31543 20.5211 9.66912Z" fill="#610B00"/>
<path d="M63.691 9.66912C63.691 15.0228 59.4343 19.3382 54.2247 19.3382C48.9832 19.3382 44.7583 14.9904 44.7583 9.66912C44.7583 4.31543 49.015 0 54.2247 0C59.4343 0 63.691 4.31543 63.691 9.66912Z" fill="#610B00"/>
<path d="M106.83 9.66912C106.83 15.0228 102.573 19.3382 97.3634 19.3382C92.1219 19.3382 87.897 14.9904 87.897 9.66912C87.897 4.31543 92.1537 0 97.3634 0C102.605 0 106.83 4.31543 106.83 9.66912Z" fill="#610B00"/>
<path d="M150 9.66912C150 15.0228 145.743 19.3382 140.534 19.3382C135.292 19.3382 131.067 14.9904 131.067 9.66912C131.067 4.31543 135.324 0 140.534 0C145.775 0 150 4.31543 150 9.66912Z" fill="#610B00"/>
<path d="M19.981 53.2121C19.981 58.5658 15.7244 62.8811 10.5147 62.8811C5.27324 62.8811 1.04834 58.5333 1.04834 53.2121C1.04834 47.8584 5.30501 43.543 10.5147 43.543C15.7561 43.543 19.981 47.8584 19.981 53.2121Z" fill="#610B00"/>
<path d="M63.1513 53.2121C63.1513 58.5658 58.8947 62.8811 53.6851 62.8811C48.4437 62.8811 44.2188 58.5333 44.2188 53.2121C44.2188 47.8584 48.4754 43.543 53.6851 43.543C58.8947 43.543 63.1513 47.8584 63.1513 53.2121Z" fill="#610B00"/>
<path d="M106.321 53.2121C106.321 58.5658 102.065 62.8811 96.855 62.8811C91.6453 62.8811 87.3887 58.5333 87.3887 53.2121C87.3887 47.8584 91.6453 43.543 96.855 43.543C102.065 43.543 106.321 47.8584 106.321 53.2121Z" fill="#610B00"/>
<path d="M149.491 53.2121C149.491 58.5658 145.235 62.8811 140.025 62.8811C134.784 62.8811 130.559 58.5333 130.559 53.2121C130.559 47.8584 134.815 43.543 140.025 43.543C145.235 43.543 149.491 47.8584 149.491 53.2121Z" fill="#610B00"/>
<path d="M19.4729 96.7554C19.4729 102.109 15.2162 106.424 10.0065 106.424C4.79676 106.424 0.540039 102.077 0.540039 96.7554C0.540039 91.4017 4.79676 87.0864 10.0065 87.0864C15.2162 87.0864 19.4729 91.4342 19.4729 96.7554Z" fill="#610B00"/>
<path d="M62.6114 96.7554C62.6114 102.109 58.3547 106.424 53.1451 106.424C47.9036 106.424 43.6787 102.077 43.6787 96.7554C43.6787 91.4017 47.9354 87.0864 53.1451 87.0864C58.3865 87.0864 62.6114 91.4342 62.6114 96.7554Z" fill="#610B00"/>
<path d="M105.781 96.7554C105.781 102.109 101.525 106.424 96.3149 106.424C91.1053 106.424 86.8486 102.077 86.8486 96.7554C86.8486 91.4017 91.1053 87.0864 96.3149 87.0864C101.525 87.0864 105.781 91.4342 105.781 96.7554Z" fill="#610B00"/>
<path d="M148.952 96.7554C148.952 102.109 144.695 106.424 139.485 106.424C134.244 106.424 130.019 102.077 130.019 96.7554C130.019 91.4017 134.276 87.0864 139.485 87.0864C144.727 87.0864 148.952 91.4342 148.952 96.7554Z" fill="#610B00"/>
<path d="M18.9326 140.331C18.9326 145.685 14.6759 150 9.46628 150C4.22488 150 0 145.652 0 140.331C0 135.01 4.25664 130.662 9.46628 130.662C14.7077 130.629 18.9326 134.977 18.9326 140.331Z" fill="#610B00"/>
<path d="M62.1029 140.331C62.1029 145.685 57.8463 150 52.6367 150C47.3953 150 43.1704 145.652 43.1704 140.331C43.1704 135.01 47.427 130.662 52.6367 130.662C57.8463 130.629 62.1029 134.977 62.1029 140.331Z" fill="#610B00"/>
<path d="M105.273 140.331C105.273 145.685 101.016 150 95.8062 150C90.5965 150 86.3398 145.652 86.3398 140.331C86.3398 135.01 90.5965 130.662 95.8062 130.662C101.016 130.662 105.273 134.977 105.273 140.331Z" fill="#610B00"/>
<path d="M148.412 140.331C148.412 145.685 144.155 150 138.945 150C133.704 150 129.479 145.652 129.479 140.331C129.479 135.01 133.736 130.662 138.945 130.662C144.187 130.629 148.412 134.977 148.412 140.331Z" fill="#610B00"/>
</g>
</svg>
